<svg width="48" height="48" viewBox="0 0 48 48" fill="none" xmlns="http://www.w3.org/2000/svg">
<rect width="48" height="48" rx="24" fill="url(#paint0_linear_4_815)"/>
<path d="M32.1666 20.5L30.7083 17.2917L27.5 15.8333L30.7083 14.375L32.1666 11.1667L33.625 14.375L36.8333 15.8333L33.625 17.2917L32.1666 20.5ZM32.1666 36.8333L30.7083 33.625L27.5 32.1667L30.7083 30.7083L32.1666 27.5L33.625 30.7083L36.8333 32.1667L33.625 33.625L32.1666 36.8333ZM20.5 33.3333L17.5833 26.9167L11.1666 24L17.5833 21.0833L20.5 14.6667L23.4166 21.0833L29.8333 24L23.4166 26.9167L20.5 33.3333ZM20.5 27.675L21.6666 25.1667L24.175 24L21.6666 22.8333L20.5 20.325L19.3333 22.8333L16.825 24L19.3333 25.1667L20.5 27.675Z" fill="white"/>
<defs>
<linearGradient id="paint0_linear_4_815" x1="0" y1="0" x2="48" y2="48" gradientUnits="userSpaceOnUse">
<stop stop-color="#4F46E5"/>
<stop offset="1" stop-color="#7C3AED"/>
</linearGradient>
</defs>
</svg>
